<svg width="1728" height="1742" viewBox="0 0 1728 1742" fill="none" xmlns="http://www.w3.org/2000/svg">
<g filter="url(#filter0_d_8_121)">
<ellipse cx="864.5" cy="1054" rx="1097.5" ry="614" fill="#452273"/>
<path d="M864.5 441.5C1167.36 441.5 1441.47 510.18 1639.82 621.146C1838.21 732.138 1960.5 885.235 1960.5 1054C1960.5 1222.76 1838.21 1375.86 1639.82 1486.85C1441.47 1597.82 1167.36 1666.5 864.5 1666.5C561.641 1666.5 287.528 1597.82 89.1826 1486.85C-109.212 1375.86 -231.5 1222.76 -231.5 1054C-231.5 885.235 -109.212 732.138 89.1826 621.146C287.528 510.18 561.641 441.5 864.5 441.5Z" stroke="#9D6AD1" stroke-width="3"/>
</g>
<g filter="url(#filter1_d_8_121)">
<ellipse cx="860.5" cy="993" rx="520.5" ry="565" fill="#452273"/>
<path d="M860.5 429.5C1147.02 429.5 1379.5 681.669 1379.5 993C1379.5 1304.33 1147.02 1556.5 860.5 1556.5C573.978 1556.5 341.5 1304.33 341.5 993C341.5 681.669 573.978 429.5 860.5 429.5Z" stroke="#9D6AD1" stroke-width="3"/>
</g>
<path d="M864.5 412.5C1167.34 412.5 1441.43 486.936 1639.77 607.203C1838.14 727.487 1960.5 893.453 1960.5 1076.5C1960.5 1259.55 1838.14 1425.51 1639.77 1545.8C1441.43 1666.06 1167.34 1740.5 864.5 1740.5C561.662 1740.5 287.566 1666.06 89.2285 1545.8C-109.136 1425.51 -231.5 1259.55 -231.5 1076.5C-231.5 893.453 -109.136 727.487 89.2285 607.203C287.566 486.936 561.662 412.5 864.5 412.5Z" fill="black" stroke="url(#paint0_linear_8_121)" stroke-width="3"/>
<defs>
<filter id="filter0_d_8_121" x="-467" y="0" width="2695" height="1728" filterUnits="userSpaceOnUse" color-interpolation-filters="sRGB">
<feFlood flood-opacity="0" result="BackgroundImageFix"/>
<feColorMatrix in="SourceAlpha" type="matrix" values="0 0 0 0 0 0 0 0 0 0 0 0 0 0 0 0 0 0 127 0" result="hardAlpha"/>
<feOffset dx="16" dy="-190"/>
<feGaussianBlur stdDeviation="125"/>
<feComposite in2="hardAlpha" operator="out"/>
<feColorMatrix type="matrix" values="0 0 0 0 0.462745 0 0 0 0 0.247059 0 0 0 0 0.709804 0 0 0 0.48 0"/>
<feBlend mode="normal" in2="BackgroundImageFix" result="effect1_dropShadow_8_121"/>
<feBlend mode="normal" in="SourceGraphic" in2="effect1_dropShadow_8_121" result="shape"/>
</filter>
<filter id="filter1_d_8_121" x="78" y="44" width="1541" height="1630" filterUnits="userSpaceOnUse" color-interpolation-filters="sRGB">
<feFlood flood-opacity="0" result="BackgroundImageFix"/>
<feColorMatrix in="SourceAlpha" type="matrix" values="0 0 0 0 0 0 0 0 0 0 0 0 0 0 0 0 0 0 127 0" result="hardAlpha"/>
<feOffset dx="-12" dy="-134"/>
<feGaussianBlur stdDeviation="125"/>
<feComposite in2="hardAlpha" operator="out"/>
<feColorMatrix type="matrix" values="0 0 0 0 0.615686 0 0 0 0 0.415686 0 0 0 0 0.819608 0 0 0 0.94 0"/>
<feBlend mode="normal" in2="BackgroundImageFix" result="effect1_dropShadow_8_121"/>
<feBlend mode="normal" in="SourceGraphic" in2="effect1_dropShadow_8_121" result="shape"/>
</filter>
<linearGradient id="paint0_linear_8_121" x1="864.5" y1="411" x2="864.5" y2="1742" gradientUnits="userSpaceOnUse">
<stop stop-color="#9D6AD1"/>
<stop offset="1" stop-color="#50366B" stop-opacity="0"/>
</linearGradient>
</defs>
</svg>
